<svg width="360" height="360" viewBox="0 0 360 360" fill="none" xmlns="http://www.w3.org/2000/svg" role="img" aria-labelledby="billLogoTitle">
  <title id="billLogoTitle">Bill</title>
  <defs>
    <linearGradient id="ivory" x1="68" y1="44" x2="286" y2="320" gradientUnits="userSpaceOnUse">
      <stop stop-color="#FFF8EA"/>
      <stop offset="1" stop-color="#E4D8C8"/>
    </linearGradient>
    <filter id="logoShadow" x="0" y="0" width="360" height="360" filterUnits="userSpaceOnUse" color-interpolation-filters="sRGB">
      <feDropShadow dx="0" dy="18" stdDeviation="24" flood-color="#000000" flood-opacity="0.58"/>
      <feDropShadow dx="0" dy="0" stdDeviation="18" flood-color="#FFF8EA" flood-opacity="0.10"/>
    </filter>
  </defs>

  <g filter="url(#logoShadow)">
    <path fill-rule="evenodd" clip-rule="evenodd" d="M92 44H197.5C236.4 44 260 66.4 260 101.8C260 124.8 249.5 141.9 230.7 151C256.4 159.5 272 181.6 272 211.4C272 251.5 243.2 277 198.5 277H92V44ZM132 82V141H187.7C207.8 141 220 130.1 220 112.1C220 93.6 207.8 82 187.7 82H132ZM132 180V239H196.4C218 239 231 228 231 210C231 191.4 218 180 196.4 180H132Z" fill="url(#ivory)"/>

    <path d="M116 120H225L190.5 168C187.2 172.6 185.5 178.1 185.5 183.8V241H155.5V183.8C155.5 178.1 153.8 172.6 150.5 168L116 120Z" fill="#050403"/>
    <circle cx="174" cy="149" r="12" fill="url(#ivory)"/>
    <path d="M183 141L215 103" stroke="#050403" stroke-width="9" stroke-linecap="round"/>
    <path d="M154 241H187" stroke="#050403" stroke-width="12" stroke-linecap="round"/>
  </g>

  <text x="180" y="335" text-anchor="middle" fill="url(#ivory)" font-family="Arial Black, Arial, Helvetica, sans-serif" font-size="64" font-weight="900" letter-spacing="24">BILL</text>
</svg>
